<svg xmlns="http://www.w3.org/2000/svg" width="72" height="72" viewBox="0 0 72 72"><defs><style>.a{fill:#ff8f43;}.b{fill:none;}.c{fill:#fff;}</style></defs><g transform="translate(-5.594 -5.49)"><ellipse class="a" cx="36" cy="36" rx="36" ry="36" transform="translate(5.594 5.49)"/><g transform="translate(27.376 27.461)"><path class="b" d="M0,0H29.116V29.116H0Z"/><path class="c" d="M23.835,2H4.436A2.433,2.433,0,0,0,2.01,4.426V26.263l4.841-4.853H23.835a2.433,2.433,0,0,0,2.426-2.426V4.426A2.433,2.433,0,0,0,23.835,2ZM15.343,16.558H12.916V14.132h2.426Zm0-6.066a1.213,1.213,0,0,1-2.426,0V8.066a1.213,1.213,0,0,1,2.426,0Z" transform="translate(0.428 0.426)"/></g></g></svg>